# xmcd
#
# Track frame offsets:
#	180
#	11392
#	25801
#	35363
#	46726
#	60862
#	72860
#	84335
#	95633
#	106966
#	115307
#	128593
#	137445
#	147823
#	158939
#	171895
#	184847
#	196444
#	209302
#	222103
#	232377
#	244733
#	257021
#
# Disc length: 3610 seconds
#
# Revision: 0
# Processed by: cddbd v1.5.2PL0 Copyright (c) Steve Scherf et al.
# Submitted via: dBpowerAMP V4.0
#
DISCID=390e1817
DTITLE=The Rainbows - Mary Lee
DYEAR=1900
DGENRE=60's
TTITLE0=Mary Lee
TTITLE1=You Broke My Heart
TTITLE2=Hold My Hand
TTITLE3=Minnie
TTITLE4=Evening
TTITLE5=Shirley
TTITLE6=Come On Back
TTITLE7=Have A Ball
TTITLE8=They Say
TTITLE9=It's Terrific
TTITLE10=Love Me
TTITLE11=Shake That Thing
TTITLE12=Oh Boy
TTITLE13=Don't Take Away The Girl I Love
TTITLE14=It Wouldn't Be Right
TTITLE15=Stay
TTITLE16=Can't You See I Love You So
TTITLE17=Only A Picture
TTITLE18=The Telephone Is Ringing
TTITLE19=If You See Mary Lee
TTITLE20=I Know
TTITLE21=Family Monkey
TTITLE22=Evening (Version 2)
EXTD=issued by Pilgrim 801
EXTT0=
EXTT1=
EXTT2=
EXTT3=
EXTT4=
EXTT5=
EXTT6=
EXTT7=
EXTT8=
EXTT9=
EXTT10=
EXTT11=
EXTT12=
EXTT13=
EXTT14=
EXTT15=
EXTT16=
EXTT17=
EXTT18=
EXTT19=
EXTT20=
EXTT21=
EXTT22=
PLAYORDER=
